<mxfile host="app.diagrams.net" modified="2024-02-03T17:04:34.471Z" agent="Mozilla/5.0 (Windows NT 10.0; Win64; x64) AppleWebKit/537.36 (KHTML, like Gecko) Chrome/121.0.0.0 Safari/537.36" etag="bYFEQxQiJwyIJC5OO4gd" version="23.0.2" type="device">
  <diagram name="Page-1" id="VJGGpBUms6uuKZYUqivL">
    <mxGraphModel dx="1050" dy="557" grid="0" gridSize="10" guides="1" tooltips="1" connect="1" arrows="1" fold="1" page="1" pageScale="1" pageWidth="827" pageHeight="1169" math="0" shadow="0">
      <root>
        <mxCell id="0" />
        <mxCell id="1" parent="0" />
        <mxCell id="-A3oYsd_DBiMJFhTpFHi-1" value="" style="rounded=0;whiteSpace=wrap;html=1;fillColor=#f5f5f5;strokeColor=#666666;fontColor=#333333;" vertex="1" parent="1">
          <mxGeometry x="80" y="26" width="684" height="297" as="geometry" />
        </mxCell>
        <mxCell id="-A3oYsd_DBiMJFhTpFHi-2" value="BLOCK DIAGRAM" style="text;html=1;align=center;verticalAlign=middle;resizable=0;points=[];autosize=1;strokeColor=none;fillColor=none;" vertex="1" parent="1">
          <mxGeometry x="332" y="3" width="118" height="26" as="geometry" />
        </mxCell>
        <mxCell id="-A3oYsd_DBiMJFhTpFHi-20" value="" style="edgeStyle=orthogonalEdgeStyle;rounded=0;orthogonalLoop=1;jettySize=auto;html=1;" edge="1" parent="1" source="-A3oYsd_DBiMJFhTpFHi-3" target="-A3oYsd_DBiMJFhTpFHi-18">
          <mxGeometry relative="1" as="geometry" />
        </mxCell>
        <mxCell id="-A3oYsd_DBiMJFhTpFHi-3" value="" style="rounded=1;whiteSpace=wrap;html=1;fillColor=#dae8fc;strokeColor=#6c8ebf;" vertex="1" parent="1">
          <mxGeometry x="96" y="86" width="176" height="204" as="geometry" />
        </mxCell>
        <mxCell id="-A3oYsd_DBiMJFhTpFHi-4" value="Frontend" style="text;html=1;strokeColor=none;fillColor=none;align=center;verticalAlign=middle;whiteSpace=wrap;rounded=0;" vertex="1" parent="1">
          <mxGeometry x="155.5" y="59" width="60" height="30" as="geometry" />
        </mxCell>
        <mxCell id="-A3oYsd_DBiMJFhTpFHi-7" value="EC2" style="rounded=1;whiteSpace=wrap;html=1;fillColor=#fff2cc;strokeColor=#d6b656;" vertex="1" parent="1">
          <mxGeometry x="571" y="89.5" width="176" height="197" as="geometry" />
        </mxCell>
        <mxCell id="-A3oYsd_DBiMJFhTpFHi-8" value="Backend" style="text;html=1;strokeColor=none;fillColor=none;align=center;verticalAlign=middle;whiteSpace=wrap;rounded=0;" vertex="1" parent="1">
          <mxGeometry x="384" y="59" width="60" height="30" as="geometry" />
        </mxCell>
        <mxCell id="-A3oYsd_DBiMJFhTpFHi-9" value="Cloud" style="text;html=1;strokeColor=none;fillColor=none;align=center;verticalAlign=middle;whiteSpace=wrap;rounded=0;" vertex="1" parent="1">
          <mxGeometry x="631" y="59" width="60" height="30" as="geometry" />
        </mxCell>
        <mxCell id="-A3oYsd_DBiMJFhTpFHi-11" value=" React" style="text;html=1;strokeColor=none;fillColor=none;align=center;verticalAlign=middle;whiteSpace=wrap;rounded=0;" vertex="1" parent="1">
          <mxGeometry x="154" y="107" width="60" height="30" as="geometry" />
        </mxCell>
        <mxCell id="-A3oYsd_DBiMJFhTpFHi-12" value=" Material UI" style="text;html=1;strokeColor=none;fillColor=none;align=center;verticalAlign=middle;whiteSpace=wrap;rounded=0;" vertex="1" parent="1">
          <mxGeometry x="147.5" y="145" width="79" height="30" as="geometry" />
        </mxCell>
        <mxCell id="-A3oYsd_DBiMJFhTpFHi-13" value="Tailwind CSS " style="text;html=1;strokeColor=none;fillColor=none;align=center;verticalAlign=middle;whiteSpace=wrap;rounded=0;" vertex="1" parent="1">
          <mxGeometry x="137" y="183.5" width="100" height="30" as="geometry" />
        </mxCell>
        <mxCell id="-A3oYsd_DBiMJFhTpFHi-14" value="Vite (Build Tool)" style="text;html=1;strokeColor=none;fillColor=none;align=center;verticalAlign=middle;whiteSpace=wrap;rounded=0;" vertex="1" parent="1">
          <mxGeometry x="137" y="229" width="97" height="30" as="geometry" />
        </mxCell>
        <mxCell id="-A3oYsd_DBiMJFhTpFHi-15" value="AWS Services" style="text;html=1;strokeColor=none;fillColor=none;align=center;verticalAlign=middle;whiteSpace=wrap;rounded=0;" vertex="1" parent="1">
          <mxGeometry x="611" y="115" width="100" height="30" as="geometry" />
        </mxCell>
        <mxCell id="-A3oYsd_DBiMJFhTpFHi-17" value="DynamoDB" style="text;html=1;strokeColor=none;fillColor=none;align=center;verticalAlign=middle;whiteSpace=wrap;rounded=0;" vertex="1" parent="1">
          <mxGeometry x="629" y="213.5" width="60" height="30" as="geometry" />
        </mxCell>
        <mxCell id="-A3oYsd_DBiMJFhTpFHi-22" style="edgeStyle=orthogonalEdgeStyle;rounded=0;orthogonalLoop=1;jettySize=auto;html=1;entryX=0;entryY=0.5;entryDx=0;entryDy=0;" edge="1" parent="1" source="-A3oYsd_DBiMJFhTpFHi-18" target="-A3oYsd_DBiMJFhTpFHi-7">
          <mxGeometry relative="1" as="geometry" />
        </mxCell>
        <mxCell id="-A3oYsd_DBiMJFhTpFHi-18" value="Node.js/Express" style="rounded=1;whiteSpace=wrap;html=1;fillColor=#d0cee2;strokeColor=#56517e;" vertex="1" parent="1">
          <mxGeometry x="330" y="86" width="176" height="204" as="geometry" />
        </mxCell>
      </root>
    </mxGraphModel>
  </diagram>
</mxfile>
